<mxfile host="app.diagrams.net" agent="Mozilla/5.0 (Windows NT 10.0; Win64; x64; rv:129.0) Gecko/20100101 Firefox/129.0" version="24.7.13">
  <diagram name="Page-1" id="viIZF6A86YAhm3AL1NIh">
    <mxGraphModel dx="2593" dy="1424" grid="1" gridSize="10" guides="1" tooltips="1" connect="1" arrows="1" fold="1" page="1" pageScale="1" pageWidth="827" pageHeight="1169" math="1" shadow="0">
      <root>
        <mxCell id="0" />
        <mxCell id="1" parent="0" />
        <mxCell id="14AgsMTUxLA6Hv1Yrgec-21" value="" style="endArrow=classic;html=1;rounded=0;strokeWidth=3;" edge="1" parent="1">
          <mxGeometry width="50" height="50" relative="1" as="geometry">
            <mxPoint x="360" y="480" as="sourcePoint" />
            <mxPoint x="920" y="480" as="targetPoint" />
          </mxGeometry>
        </mxCell>
        <mxCell id="14AgsMTUxLA6Hv1Yrgec-22" value="" style="endArrow=classic;html=1;rounded=0;strokeWidth=3;" edge="1" parent="1">
          <mxGeometry width="50" height="50" relative="1" as="geometry">
            <mxPoint x="361" y="481" as="sourcePoint" />
            <mxPoint x="360" y="120" as="targetPoint" />
          </mxGeometry>
        </mxCell>
        <mxCell id="14AgsMTUxLA6Hv1Yrgec-23" value="&lt;font style=&quot;font-size: 26px;&quot;&gt;\(\mathrm{Columns}\)&lt;/font&gt;" style="text;html=1;align=center;verticalAlign=middle;whiteSpace=wrap;rounded=0;" vertex="1" parent="1">
          <mxGeometry x="550" y="500" width="180" height="30" as="geometry" />
        </mxCell>
        <mxCell id="14AgsMTUxLA6Hv1Yrgec-24" value="&lt;font style=&quot;font-size: 26px;&quot;&gt;\(\mathrm{Disparity}\)&lt;/font&gt;" style="text;html=1;align=center;verticalAlign=middle;whiteSpace=wrap;rounded=0;rotation=-90;" vertex="1" parent="1">
          <mxGeometry x="225" y="280" width="180" height="30" as="geometry" />
        </mxCell>
        <mxCell id="14AgsMTUxLA6Hv1Yrgec-25" value="" style="endArrow=none;html=1;rounded=0;strokeWidth=2;" edge="1" parent="1">
          <mxGeometry width="50" height="50" relative="1" as="geometry">
            <mxPoint x="880" y="500" as="sourcePoint" />
            <mxPoint x="880" y="480" as="targetPoint" />
          </mxGeometry>
        </mxCell>
        <mxCell id="14AgsMTUxLA6Hv1Yrgec-26" value="" style="endArrow=none;html=1;rounded=0;strokeWidth=2;" edge="1" parent="1">
          <mxGeometry width="50" height="50" relative="1" as="geometry">
            <mxPoint x="760" y="500" as="sourcePoint" />
            <mxPoint x="760" y="480" as="targetPoint" />
          </mxGeometry>
        </mxCell>
        <mxCell id="14AgsMTUxLA6Hv1Yrgec-28" value="" style="endArrow=none;html=1;rounded=0;strokeWidth=2;" edge="1" parent="1">
          <mxGeometry width="50" height="50" relative="1" as="geometry">
            <mxPoint x="640" y="500" as="sourcePoint" />
            <mxPoint x="640" y="480" as="targetPoint" />
          </mxGeometry>
        </mxCell>
        <mxCell id="14AgsMTUxLA6Hv1Yrgec-29" value="" style="endArrow=none;html=1;rounded=0;strokeWidth=2;" edge="1" parent="1">
          <mxGeometry width="50" height="50" relative="1" as="geometry">
            <mxPoint x="520" y="500" as="sourcePoint" />
            <mxPoint x="520" y="480" as="targetPoint" />
          </mxGeometry>
        </mxCell>
        <mxCell id="14AgsMTUxLA6Hv1Yrgec-30" value="" style="endArrow=none;html=1;rounded=0;strokeWidth=2;" edge="1" parent="1">
          <mxGeometry width="50" height="50" relative="1" as="geometry">
            <mxPoint x="400" y="500" as="sourcePoint" />
            <mxPoint x="400" y="480" as="targetPoint" />
          </mxGeometry>
        </mxCell>
        <mxCell id="14AgsMTUxLA6Hv1Yrgec-31" value="" style="endArrow=none;html=1;rounded=0;strokeWidth=2;" edge="1" parent="1">
          <mxGeometry width="50" height="50" relative="1" as="geometry">
            <mxPoint x="340" y="440" as="sourcePoint" />
            <mxPoint x="360" y="440" as="targetPoint" />
          </mxGeometry>
        </mxCell>
        <mxCell id="14AgsMTUxLA6Hv1Yrgec-32" value="" style="endArrow=none;html=1;rounded=0;strokeWidth=2;" edge="1" parent="1">
          <mxGeometry width="50" height="50" relative="1" as="geometry">
            <mxPoint x="340" y="380" as="sourcePoint" />
            <mxPoint x="360" y="380" as="targetPoint" />
          </mxGeometry>
        </mxCell>
        <mxCell id="14AgsMTUxLA6Hv1Yrgec-33" value="" style="endArrow=none;html=1;rounded=0;strokeWidth=2;" edge="1" parent="1">
          <mxGeometry width="50" height="50" relative="1" as="geometry">
            <mxPoint x="340" y="260" as="sourcePoint" />
            <mxPoint x="360" y="260" as="targetPoint" />
          </mxGeometry>
        </mxCell>
        <mxCell id="14AgsMTUxLA6Hv1Yrgec-34" value="" style="endArrow=none;html=1;rounded=0;strokeWidth=2;" edge="1" parent="1">
          <mxGeometry width="50" height="50" relative="1" as="geometry">
            <mxPoint x="340" y="320" as="sourcePoint" />
            <mxPoint x="360" y="320" as="targetPoint" />
          </mxGeometry>
        </mxCell>
        <mxCell id="14AgsMTUxLA6Hv1Yrgec-35" value="" style="endArrow=none;html=1;rounded=0;strokeWidth=2;" edge="1" parent="1">
          <mxGeometry width="50" height="50" relative="1" as="geometry">
            <mxPoint x="340" y="200" as="sourcePoint" />
            <mxPoint x="360" y="200" as="targetPoint" />
          </mxGeometry>
        </mxCell>
        <mxCell id="14AgsMTUxLA6Hv1Yrgec-36" value="" style="endArrow=none;html=1;rounded=0;strokeWidth=2;" edge="1" parent="1">
          <mxGeometry width="50" height="50" relative="1" as="geometry">
            <mxPoint x="340" y="140" as="sourcePoint" />
            <mxPoint x="360" y="140" as="targetPoint" />
          </mxGeometry>
        </mxCell>
        <mxCell id="14AgsMTUxLA6Hv1Yrgec-54" value="" style="endArrow=none;html=1;rounded=0;strokeColor=#FF800E;strokeWidth=4;" edge="1" parent="1" source="14AgsMTUxLA6Hv1Yrgec-42" target="14AgsMTUxLA6Hv1Yrgec-41">
          <mxGeometry width="50" height="50" relative="1" as="geometry">
            <mxPoint x="450" y="380" as="sourcePoint" />
            <mxPoint x="760" y="390" as="targetPoint" />
          </mxGeometry>
        </mxCell>
        <mxCell id="14AgsMTUxLA6Hv1Yrgec-55" value="" style="endArrow=none;html=1;rounded=0;strokeColor=#FF800E;strokeWidth=4;" edge="1" parent="1" source="14AgsMTUxLA6Hv1Yrgec-41" target="14AgsMTUxLA6Hv1Yrgec-43">
          <mxGeometry width="50" height="50" relative="1" as="geometry">
            <mxPoint x="415" y="369" as="sourcePoint" />
            <mxPoint x="525" y="351" as="targetPoint" />
          </mxGeometry>
        </mxCell>
        <mxCell id="14AgsMTUxLA6Hv1Yrgec-56" value="" style="endArrow=none;html=1;rounded=0;strokeColor=#FF800E;strokeWidth=4;" edge="1" parent="1" source="14AgsMTUxLA6Hv1Yrgec-40" target="14AgsMTUxLA6Hv1Yrgec-43">
          <mxGeometry width="50" height="50" relative="1" as="geometry">
            <mxPoint x="533" y="346" as="sourcePoint" />
            <mxPoint x="647" y="184" as="targetPoint" />
          </mxGeometry>
        </mxCell>
        <mxCell id="14AgsMTUxLA6Hv1Yrgec-57" value="" style="endArrow=none;html=1;rounded=0;strokeColor=#FF800E;strokeWidth=4;" edge="1" parent="1" source="14AgsMTUxLA6Hv1Yrgec-38" target="14AgsMTUxLA6Hv1Yrgec-40">
          <mxGeometry width="50" height="50" relative="1" as="geometry">
            <mxPoint x="768" y="406" as="sourcePoint" />
            <mxPoint x="652" y="184" as="targetPoint" />
          </mxGeometry>
        </mxCell>
        <mxCell id="14AgsMTUxLA6Hv1Yrgec-38" value="" style="ellipse;whiteSpace=wrap;html=1;aspect=fixed;fillColor=#FF800E;strokeColor=#36393d;" vertex="1" parent="1">
          <mxGeometry x="875" y="355" width="10" height="10" as="geometry" />
        </mxCell>
        <mxCell id="14AgsMTUxLA6Hv1Yrgec-40" value="" style="ellipse;whiteSpace=wrap;html=1;aspect=fixed;fillColor=#FF800E;strokeColor=#36393d;" vertex="1" parent="1">
          <mxGeometry x="755" y="395" width="10" height="10" as="geometry" />
        </mxCell>
        <mxCell id="14AgsMTUxLA6Hv1Yrgec-41" value="" style="ellipse;whiteSpace=wrap;html=1;aspect=fixed;fillColor=#FF800E;strokeColor=#36393d;" vertex="1" parent="1">
          <mxGeometry x="515" y="335" width="10" height="10" as="geometry" />
        </mxCell>
        <mxCell id="14AgsMTUxLA6Hv1Yrgec-42" value="" style="ellipse;whiteSpace=wrap;html=1;aspect=fixed;fillColor=#FF800E;strokeColor=#36393d;" vertex="1" parent="1">
          <mxGeometry x="395" y="355" width="10" height="10" as="geometry" />
        </mxCell>
        <mxCell id="14AgsMTUxLA6Hv1Yrgec-58" value="" style="endArrow=none;html=1;rounded=0;strokeColor=#FF800E;strokeWidth=4;entryX=0.512;entryY=0.587;entryDx=0;entryDy=0;entryPerimeter=0;exitX=0.544;exitY=0.556;exitDx=0;exitDy=0;exitPerimeter=0;dashed=1;dashPattern=1 2;" edge="1" parent="1" source="14AgsMTUxLA6Hv1Yrgec-47" target="14AgsMTUxLA6Hv1Yrgec-46">
          <mxGeometry width="50" height="50" relative="1" as="geometry">
            <mxPoint x="778" y="416" as="sourcePoint" />
            <mxPoint x="662" y="194" as="targetPoint" />
          </mxGeometry>
        </mxCell>
        <mxCell id="14AgsMTUxLA6Hv1Yrgec-59" value="" style="endArrow=none;html=1;rounded=0;strokeColor=#FF800E;strokeWidth=4;dashed=1;dashPattern=1 2;entryX=0.5;entryY=0.5;entryDx=0;entryDy=0;entryPerimeter=0;exitX=0.5;exitY=0.5;exitDx=0;exitDy=0;exitPerimeter=0;" edge="1" parent="1" source="14AgsMTUxLA6Hv1Yrgec-48" target="14AgsMTUxLA6Hv1Yrgec-47">
          <mxGeometry width="50" height="50" relative="1" as="geometry">
            <mxPoint x="850" y="310" as="sourcePoint" />
            <mxPoint x="780" y="370" as="targetPoint" />
          </mxGeometry>
        </mxCell>
        <mxCell id="14AgsMTUxLA6Hv1Yrgec-60" value="" style="endArrow=none;html=1;rounded=0;strokeColor=#FF800E;strokeWidth=4;entryX=0.544;entryY=0.65;entryDx=0;entryDy=0;entryPerimeter=0;exitX=0.45;exitY=0.556;exitDx=0;exitDy=0;exitPerimeter=0;dashed=1;dashPattern=1 2;" edge="1" parent="1" source="14AgsMTUxLA6Hv1Yrgec-44" target="14AgsMTUxLA6Hv1Yrgec-45">
          <mxGeometry width="50" height="50" relative="1" as="geometry">
            <mxPoint x="770" y="371" as="sourcePoint" />
            <mxPoint x="650" y="141" as="targetPoint" />
          </mxGeometry>
        </mxCell>
        <mxCell id="14AgsMTUxLA6Hv1Yrgec-61" value="" style="endArrow=none;html=1;rounded=0;strokeColor=#FF800E;strokeWidth=4;entryX=0.544;entryY=0.462;entryDx=0;entryDy=0;entryPerimeter=0;exitX=0.575;exitY=0.587;exitDx=0;exitDy=0;exitPerimeter=0;dashed=1;dashPattern=1 2;" edge="1" parent="1" source="14AgsMTUxLA6Hv1Yrgec-45" target="14AgsMTUxLA6Hv1Yrgec-46">
          <mxGeometry width="50" height="50" relative="1" as="geometry">
            <mxPoint x="410" y="331" as="sourcePoint" />
            <mxPoint x="530" y="322" as="targetPoint" />
          </mxGeometry>
        </mxCell>
        <mxCell id="14AgsMTUxLA6Hv1Yrgec-44" value="" style="rhombus;whiteSpace=wrap;html=1;fillColor=#FF800E;" vertex="1" parent="1">
          <mxGeometry x="395" y="315" width="10" height="10" as="geometry" />
        </mxCell>
        <mxCell id="14AgsMTUxLA6Hv1Yrgec-45" value="" style="rhombus;whiteSpace=wrap;html=1;fillColor=#FF800E;" vertex="1" parent="1">
          <mxGeometry x="515" y="305" width="10" height="10" as="geometry" />
        </mxCell>
        <mxCell id="14AgsMTUxLA6Hv1Yrgec-46" value="" style="rhombus;whiteSpace=wrap;html=1;fillColor=#FF800E;" vertex="1" parent="1">
          <mxGeometry x="635" y="125" width="10" height="10" as="geometry" />
        </mxCell>
        <mxCell id="14AgsMTUxLA6Hv1Yrgec-47" value="" style="rhombus;whiteSpace=wrap;html=1;fillColor=#FF800E;" vertex="1" parent="1">
          <mxGeometry x="755" y="355" width="10" height="10" as="geometry" />
        </mxCell>
        <mxCell id="14AgsMTUxLA6Hv1Yrgec-48" value="" style="rhombus;whiteSpace=wrap;html=1;fillColor=#FF800E;" vertex="1" parent="1">
          <mxGeometry x="875" y="315" width="10" height="10" as="geometry" />
        </mxCell>
        <mxCell id="14AgsMTUxLA6Hv1Yrgec-63" value="" style="endArrow=none;html=1;rounded=0;strokeColor=#FF800E;strokeWidth=4;entryX=0.512;entryY=0.587;entryDx=0;entryDy=0;entryPerimeter=0;exitX=0.544;exitY=0.556;exitDx=0;exitDy=0;exitPerimeter=0;dashed=1;dashPattern=1 2;" edge="1" parent="1" source="14AgsMTUxLA6Hv1Yrgec-70" target="14AgsMTUxLA6Hv1Yrgec-69">
          <mxGeometry width="50" height="50" relative="1" as="geometry">
            <mxPoint x="778" y="506" as="sourcePoint" />
            <mxPoint x="662" y="284" as="targetPoint" />
          </mxGeometry>
        </mxCell>
        <mxCell id="14AgsMTUxLA6Hv1Yrgec-64" value="" style="endArrow=none;html=1;rounded=0;strokeColor=#FF800E;strokeWidth=4;dashed=1;dashPattern=1 2;entryX=0.5;entryY=0.5;entryDx=0;entryDy=0;entryPerimeter=0;exitX=0.5;exitY=0.5;exitDx=0;exitDy=0;exitPerimeter=0;" edge="1" parent="1" source="14AgsMTUxLA6Hv1Yrgec-71" target="14AgsMTUxLA6Hv1Yrgec-70">
          <mxGeometry width="50" height="50" relative="1" as="geometry">
            <mxPoint x="850" y="400" as="sourcePoint" />
            <mxPoint x="780" y="460" as="targetPoint" />
          </mxGeometry>
        </mxCell>
        <mxCell id="14AgsMTUxLA6Hv1Yrgec-65" value="" style="endArrow=none;html=1;rounded=0;strokeColor=#FF800E;strokeWidth=4;entryX=0.544;entryY=0.65;entryDx=0;entryDy=0;entryPerimeter=0;exitX=0.45;exitY=0.556;exitDx=0;exitDy=0;exitPerimeter=0;dashed=1;dashPattern=1 2;" edge="1" parent="1" source="14AgsMTUxLA6Hv1Yrgec-67" target="14AgsMTUxLA6Hv1Yrgec-68">
          <mxGeometry width="50" height="50" relative="1" as="geometry">
            <mxPoint x="770" y="461" as="sourcePoint" />
            <mxPoint x="650" y="231" as="targetPoint" />
          </mxGeometry>
        </mxCell>
        <mxCell id="14AgsMTUxLA6Hv1Yrgec-66" value="" style="endArrow=none;html=1;rounded=0;strokeColor=#FF800E;strokeWidth=4;entryX=0.544;entryY=0.462;entryDx=0;entryDy=0;entryPerimeter=0;exitX=0.575;exitY=0.587;exitDx=0;exitDy=0;exitPerimeter=0;dashed=1;dashPattern=1 2;" edge="1" parent="1" source="14AgsMTUxLA6Hv1Yrgec-68" target="14AgsMTUxLA6Hv1Yrgec-69">
          <mxGeometry width="50" height="50" relative="1" as="geometry">
            <mxPoint x="410" y="421" as="sourcePoint" />
            <mxPoint x="530" y="412" as="targetPoint" />
          </mxGeometry>
        </mxCell>
        <mxCell id="14AgsMTUxLA6Hv1Yrgec-67" value="" style="rhombus;whiteSpace=wrap;html=1;fillColor=#FF800E;" vertex="1" parent="1">
          <mxGeometry x="395" y="385" width="10" height="10" as="geometry" />
        </mxCell>
        <mxCell id="14AgsMTUxLA6Hv1Yrgec-68" value="" style="rhombus;whiteSpace=wrap;html=1;fillColor=#FF800E;" vertex="1" parent="1">
          <mxGeometry x="515" y="395" width="10" height="10" as="geometry" />
        </mxCell>
        <mxCell id="14AgsMTUxLA6Hv1Yrgec-69" value="" style="rhombus;whiteSpace=wrap;html=1;fillColor=#FF800E;" vertex="1" parent="1">
          <mxGeometry x="635" y="260" width="10" height="10" as="geometry" />
        </mxCell>
        <mxCell id="14AgsMTUxLA6Hv1Yrgec-70" value="" style="rhombus;whiteSpace=wrap;html=1;fillColor=#FF800E;" vertex="1" parent="1">
          <mxGeometry x="755" y="445" width="10" height="10" as="geometry" />
        </mxCell>
        <mxCell id="14AgsMTUxLA6Hv1Yrgec-71" value="" style="rhombus;whiteSpace=wrap;html=1;fillColor=#FF800E;" vertex="1" parent="1">
          <mxGeometry x="875" y="385" width="10" height="10" as="geometry" />
        </mxCell>
        <mxCell id="14AgsMTUxLA6Hv1Yrgec-43" value="" style="ellipse;whiteSpace=wrap;html=1;aspect=fixed;fillColor=#FF800E;strokeColor=#36393d;" vertex="1" parent="1">
          <mxGeometry x="635" y="165" width="10" height="10" as="geometry" />
        </mxCell>
        <mxCell id="14AgsMTUxLA6Hv1Yrgec-72" value="" style="endArrow=classic;html=1;rounded=0;strokeWidth=3;" edge="1" parent="1">
          <mxGeometry width="50" height="50" relative="1" as="geometry">
            <mxPoint x="1080" y="480" as="sourcePoint" />
            <mxPoint x="1640" y="480" as="targetPoint" />
          </mxGeometry>
        </mxCell>
        <mxCell id="14AgsMTUxLA6Hv1Yrgec-73" value="" style="endArrow=classic;html=1;rounded=0;strokeWidth=3;" edge="1" parent="1">
          <mxGeometry width="50" height="50" relative="1" as="geometry">
            <mxPoint x="1081" y="481" as="sourcePoint" />
            <mxPoint x="1080" y="120" as="targetPoint" />
          </mxGeometry>
        </mxCell>
        <mxCell id="14AgsMTUxLA6Hv1Yrgec-76" value="" style="endArrow=none;html=1;rounded=0;strokeWidth=2;" edge="1" parent="1">
          <mxGeometry width="50" height="50" relative="1" as="geometry">
            <mxPoint x="1600" y="500" as="sourcePoint" />
            <mxPoint x="1600" y="480" as="targetPoint" />
          </mxGeometry>
        </mxCell>
        <mxCell id="14AgsMTUxLA6Hv1Yrgec-77" value="" style="endArrow=none;html=1;rounded=0;strokeWidth=2;" edge="1" parent="1">
          <mxGeometry width="50" height="50" relative="1" as="geometry">
            <mxPoint x="1480" y="500" as="sourcePoint" />
            <mxPoint x="1480" y="480" as="targetPoint" />
          </mxGeometry>
        </mxCell>
        <mxCell id="14AgsMTUxLA6Hv1Yrgec-78" value="" style="endArrow=none;html=1;rounded=0;strokeWidth=2;" edge="1" parent="1">
          <mxGeometry width="50" height="50" relative="1" as="geometry">
            <mxPoint x="1360" y="500" as="sourcePoint" />
            <mxPoint x="1360" y="480" as="targetPoint" />
          </mxGeometry>
        </mxCell>
        <mxCell id="14AgsMTUxLA6Hv1Yrgec-79" value="" style="endArrow=none;html=1;rounded=0;strokeWidth=2;" edge="1" parent="1">
          <mxGeometry width="50" height="50" relative="1" as="geometry">
            <mxPoint x="1240" y="500" as="sourcePoint" />
            <mxPoint x="1240" y="480" as="targetPoint" />
          </mxGeometry>
        </mxCell>
        <mxCell id="14AgsMTUxLA6Hv1Yrgec-80" value="" style="endArrow=none;html=1;rounded=0;strokeWidth=2;" edge="1" parent="1">
          <mxGeometry width="50" height="50" relative="1" as="geometry">
            <mxPoint x="1120" y="500" as="sourcePoint" />
            <mxPoint x="1120" y="480" as="targetPoint" />
          </mxGeometry>
        </mxCell>
        <mxCell id="14AgsMTUxLA6Hv1Yrgec-81" value="" style="endArrow=none;html=1;rounded=0;strokeWidth=2;" edge="1" parent="1">
          <mxGeometry width="50" height="50" relative="1" as="geometry">
            <mxPoint x="1060" y="440" as="sourcePoint" />
            <mxPoint x="1080" y="440" as="targetPoint" />
          </mxGeometry>
        </mxCell>
        <mxCell id="14AgsMTUxLA6Hv1Yrgec-82" value="" style="endArrow=none;html=1;rounded=0;strokeWidth=2;" edge="1" parent="1">
          <mxGeometry width="50" height="50" relative="1" as="geometry">
            <mxPoint x="1060" y="380" as="sourcePoint" />
            <mxPoint x="1080" y="380" as="targetPoint" />
          </mxGeometry>
        </mxCell>
        <mxCell id="14AgsMTUxLA6Hv1Yrgec-83" value="" style="endArrow=none;html=1;rounded=0;strokeWidth=2;" edge="1" parent="1">
          <mxGeometry width="50" height="50" relative="1" as="geometry">
            <mxPoint x="1060" y="260" as="sourcePoint" />
            <mxPoint x="1080" y="260" as="targetPoint" />
          </mxGeometry>
        </mxCell>
        <mxCell id="14AgsMTUxLA6Hv1Yrgec-84" value="" style="endArrow=none;html=1;rounded=0;strokeWidth=2;" edge="1" parent="1">
          <mxGeometry width="50" height="50" relative="1" as="geometry">
            <mxPoint x="1060" y="320" as="sourcePoint" />
            <mxPoint x="1080" y="320" as="targetPoint" />
          </mxGeometry>
        </mxCell>
        <mxCell id="14AgsMTUxLA6Hv1Yrgec-85" value="" style="endArrow=none;html=1;rounded=0;strokeWidth=2;" edge="1" parent="1">
          <mxGeometry width="50" height="50" relative="1" as="geometry">
            <mxPoint x="1060" y="200" as="sourcePoint" />
            <mxPoint x="1080" y="200" as="targetPoint" />
          </mxGeometry>
        </mxCell>
        <mxCell id="14AgsMTUxLA6Hv1Yrgec-86" value="" style="endArrow=none;html=1;rounded=0;strokeWidth=2;" edge="1" parent="1">
          <mxGeometry width="50" height="50" relative="1" as="geometry">
            <mxPoint x="1060" y="140" as="sourcePoint" />
            <mxPoint x="1080" y="140" as="targetPoint" />
          </mxGeometry>
        </mxCell>
        <mxCell id="14AgsMTUxLA6Hv1Yrgec-87" value="" style="endArrow=none;html=1;rounded=0;strokeColor=#FF800E;strokeWidth=4;" edge="1" parent="1" source="14AgsMTUxLA6Hv1Yrgec-94" target="14AgsMTUxLA6Hv1Yrgec-93">
          <mxGeometry width="50" height="50" relative="1" as="geometry">
            <mxPoint x="1170" y="380" as="sourcePoint" />
            <mxPoint x="1480" y="390" as="targetPoint" />
          </mxGeometry>
        </mxCell>
        <mxCell id="14AgsMTUxLA6Hv1Yrgec-88" value="" style="endArrow=none;html=1;rounded=0;strokeColor=#FF800E;strokeWidth=4;" edge="1" parent="1" source="14AgsMTUxLA6Hv1Yrgec-93" target="14AgsMTUxLA6Hv1Yrgec-113">
          <mxGeometry width="50" height="50" relative="1" as="geometry">
            <mxPoint x="1135" y="369" as="sourcePoint" />
            <mxPoint x="1245" y="351" as="targetPoint" />
          </mxGeometry>
        </mxCell>
        <mxCell id="14AgsMTUxLA6Hv1Yrgec-89" value="" style="endArrow=none;html=1;rounded=0;strokeColor=#FF800E;strokeWidth=4;" edge="1" parent="1" source="14AgsMTUxLA6Hv1Yrgec-92" target="14AgsMTUxLA6Hv1Yrgec-113">
          <mxGeometry width="50" height="50" relative="1" as="geometry">
            <mxPoint x="1253" y="346" as="sourcePoint" />
            <mxPoint x="1367" y="184" as="targetPoint" />
          </mxGeometry>
        </mxCell>
        <mxCell id="14AgsMTUxLA6Hv1Yrgec-90" value="" style="endArrow=none;html=1;rounded=0;strokeColor=#FF800E;strokeWidth=4;" edge="1" parent="1" source="14AgsMTUxLA6Hv1Yrgec-91" target="14AgsMTUxLA6Hv1Yrgec-92">
          <mxGeometry width="50" height="50" relative="1" as="geometry">
            <mxPoint x="1488" y="406" as="sourcePoint" />
            <mxPoint x="1372" y="184" as="targetPoint" />
          </mxGeometry>
        </mxCell>
        <mxCell id="14AgsMTUxLA6Hv1Yrgec-91" value="" style="ellipse;whiteSpace=wrap;html=1;aspect=fixed;fillColor=#FF800E;strokeColor=#36393d;" vertex="1" parent="1">
          <mxGeometry x="1595" y="355" width="10" height="10" as="geometry" />
        </mxCell>
        <mxCell id="14AgsMTUxLA6Hv1Yrgec-92" value="" style="ellipse;whiteSpace=wrap;html=1;aspect=fixed;fillColor=#FF800E;strokeColor=#36393d;" vertex="1" parent="1">
          <mxGeometry x="1475" y="395" width="10" height="10" as="geometry" />
        </mxCell>
        <mxCell id="14AgsMTUxLA6Hv1Yrgec-93" value="" style="ellipse;whiteSpace=wrap;html=1;aspect=fixed;fillColor=#FF800E;strokeColor=#36393d;" vertex="1" parent="1">
          <mxGeometry x="1235" y="335" width="10" height="10" as="geometry" />
        </mxCell>
        <mxCell id="14AgsMTUxLA6Hv1Yrgec-94" value="" style="ellipse;whiteSpace=wrap;html=1;aspect=fixed;fillColor=#FF800E;strokeColor=#36393d;" vertex="1" parent="1">
          <mxGeometry x="1115" y="355" width="10" height="10" as="geometry" />
        </mxCell>
        <mxCell id="14AgsMTUxLA6Hv1Yrgec-95" value="" style="endArrow=none;html=1;rounded=0;strokeColor=#FF800E;strokeWidth=4;entryX=0.512;entryY=0.587;entryDx=0;entryDy=0;entryPerimeter=0;exitX=0.544;exitY=0.556;exitDx=0;exitDy=0;exitPerimeter=0;dashed=1;dashPattern=1 2;" edge="1" parent="1" source="14AgsMTUxLA6Hv1Yrgec-102" target="14AgsMTUxLA6Hv1Yrgec-101">
          <mxGeometry width="50" height="50" relative="1" as="geometry">
            <mxPoint x="1498" y="416" as="sourcePoint" />
            <mxPoint x="1382" y="194" as="targetPoint" />
          </mxGeometry>
        </mxCell>
        <mxCell id="14AgsMTUxLA6Hv1Yrgec-96" value="" style="endArrow=none;html=1;rounded=0;strokeColor=#FF800E;strokeWidth=4;dashed=1;dashPattern=1 2;entryX=0.5;entryY=0.5;entryDx=0;entryDy=0;entryPerimeter=0;exitX=0.5;exitY=0.5;exitDx=0;exitDy=0;exitPerimeter=0;" edge="1" parent="1" source="14AgsMTUxLA6Hv1Yrgec-103" target="14AgsMTUxLA6Hv1Yrgec-102">
          <mxGeometry width="50" height="50" relative="1" as="geometry">
            <mxPoint x="1570" y="310" as="sourcePoint" />
            <mxPoint x="1500" y="370" as="targetPoint" />
          </mxGeometry>
        </mxCell>
        <mxCell id="14AgsMTUxLA6Hv1Yrgec-97" value="" style="endArrow=none;html=1;rounded=0;strokeColor=#FF800E;strokeWidth=4;entryX=0.544;entryY=0.65;entryDx=0;entryDy=0;entryPerimeter=0;exitX=0.45;exitY=0.556;exitDx=0;exitDy=0;exitPerimeter=0;dashed=1;dashPattern=1 2;" edge="1" parent="1" source="14AgsMTUxLA6Hv1Yrgec-99" target="14AgsMTUxLA6Hv1Yrgec-100">
          <mxGeometry width="50" height="50" relative="1" as="geometry">
            <mxPoint x="1490" y="371" as="sourcePoint" />
            <mxPoint x="1370" y="141" as="targetPoint" />
          </mxGeometry>
        </mxCell>
        <mxCell id="14AgsMTUxLA6Hv1Yrgec-98" value="" style="endArrow=none;html=1;rounded=0;strokeColor=#FF800E;strokeWidth=4;entryX=0.544;entryY=0.462;entryDx=0;entryDy=0;entryPerimeter=0;exitX=0.575;exitY=0.587;exitDx=0;exitDy=0;exitPerimeter=0;dashed=1;dashPattern=1 2;" edge="1" parent="1" source="14AgsMTUxLA6Hv1Yrgec-100" target="14AgsMTUxLA6Hv1Yrgec-101">
          <mxGeometry width="50" height="50" relative="1" as="geometry">
            <mxPoint x="1130" y="331" as="sourcePoint" />
            <mxPoint x="1250" y="322" as="targetPoint" />
          </mxGeometry>
        </mxCell>
        <mxCell id="14AgsMTUxLA6Hv1Yrgec-99" value="" style="rhombus;whiteSpace=wrap;html=1;fillColor=#FF800E;" vertex="1" parent="1">
          <mxGeometry x="1115" y="315" width="10" height="10" as="geometry" />
        </mxCell>
        <mxCell id="14AgsMTUxLA6Hv1Yrgec-100" value="" style="rhombus;whiteSpace=wrap;html=1;fillColor=#FF800E;" vertex="1" parent="1">
          <mxGeometry x="1235" y="305" width="10" height="10" as="geometry" />
        </mxCell>
        <mxCell id="14AgsMTUxLA6Hv1Yrgec-101" value="" style="rhombus;whiteSpace=wrap;html=1;fillColor=#FF800E;" vertex="1" parent="1">
          <mxGeometry x="1355" y="125" width="10" height="10" as="geometry" />
        </mxCell>
        <mxCell id="14AgsMTUxLA6Hv1Yrgec-102" value="" style="rhombus;whiteSpace=wrap;html=1;fillColor=#FF800E;" vertex="1" parent="1">
          <mxGeometry x="1475" y="355" width="10" height="10" as="geometry" />
        </mxCell>
        <mxCell id="14AgsMTUxLA6Hv1Yrgec-103" value="" style="rhombus;whiteSpace=wrap;html=1;fillColor=#FF800E;" vertex="1" parent="1">
          <mxGeometry x="1595" y="315" width="10" height="10" as="geometry" />
        </mxCell>
        <mxCell id="14AgsMTUxLA6Hv1Yrgec-104" value="" style="endArrow=none;html=1;rounded=0;strokeColor=#FF800E;strokeWidth=4;entryX=0.512;entryY=0.587;entryDx=0;entryDy=0;entryPerimeter=0;exitX=0.544;exitY=0.556;exitDx=0;exitDy=0;exitPerimeter=0;dashed=1;dashPattern=1 2;" edge="1" parent="1" source="14AgsMTUxLA6Hv1Yrgec-111" target="14AgsMTUxLA6Hv1Yrgec-110">
          <mxGeometry width="50" height="50" relative="1" as="geometry">
            <mxPoint x="1498" y="506" as="sourcePoint" />
            <mxPoint x="1382" y="284" as="targetPoint" />
          </mxGeometry>
        </mxCell>
        <mxCell id="14AgsMTUxLA6Hv1Yrgec-105" value="" style="endArrow=none;html=1;rounded=0;strokeColor=#FF800E;strokeWidth=4;dashed=1;dashPattern=1 2;entryX=0.5;entryY=0.5;entryDx=0;entryDy=0;entryPerimeter=0;exitX=0.5;exitY=0.5;exitDx=0;exitDy=0;exitPerimeter=0;" edge="1" parent="1" source="14AgsMTUxLA6Hv1Yrgec-112" target="14AgsMTUxLA6Hv1Yrgec-111">
          <mxGeometry width="50" height="50" relative="1" as="geometry">
            <mxPoint x="1570" y="400" as="sourcePoint" />
            <mxPoint x="1500" y="460" as="targetPoint" />
          </mxGeometry>
        </mxCell>
        <mxCell id="14AgsMTUxLA6Hv1Yrgec-106" value="" style="endArrow=none;html=1;rounded=0;strokeColor=#FF800E;strokeWidth=4;entryX=0.544;entryY=0.65;entryDx=0;entryDy=0;entryPerimeter=0;exitX=0.45;exitY=0.556;exitDx=0;exitDy=0;exitPerimeter=0;dashed=1;dashPattern=1 2;" edge="1" parent="1" source="14AgsMTUxLA6Hv1Yrgec-108" target="14AgsMTUxLA6Hv1Yrgec-109">
          <mxGeometry width="50" height="50" relative="1" as="geometry">
            <mxPoint x="1490" y="461" as="sourcePoint" />
            <mxPoint x="1370" y="231" as="targetPoint" />
          </mxGeometry>
        </mxCell>
        <mxCell id="14AgsMTUxLA6Hv1Yrgec-107" value="" style="endArrow=none;html=1;rounded=0;strokeColor=#FF800E;strokeWidth=4;entryX=0.544;entryY=0.462;entryDx=0;entryDy=0;entryPerimeter=0;exitX=0.575;exitY=0.587;exitDx=0;exitDy=0;exitPerimeter=0;dashed=1;dashPattern=1 2;" edge="1" parent="1" source="14AgsMTUxLA6Hv1Yrgec-109" target="14AgsMTUxLA6Hv1Yrgec-110">
          <mxGeometry width="50" height="50" relative="1" as="geometry">
            <mxPoint x="1130" y="421" as="sourcePoint" />
            <mxPoint x="1250" y="412" as="targetPoint" />
          </mxGeometry>
        </mxCell>
        <mxCell id="14AgsMTUxLA6Hv1Yrgec-108" value="" style="rhombus;whiteSpace=wrap;html=1;fillColor=#FF800E;" vertex="1" parent="1">
          <mxGeometry x="1115" y="385" width="10" height="10" as="geometry" />
        </mxCell>
        <mxCell id="14AgsMTUxLA6Hv1Yrgec-109" value="" style="rhombus;whiteSpace=wrap;html=1;fillColor=#FF800E;" vertex="1" parent="1">
          <mxGeometry x="1235" y="395" width="10" height="10" as="geometry" />
        </mxCell>
        <mxCell id="14AgsMTUxLA6Hv1Yrgec-110" value="" style="rhombus;whiteSpace=wrap;html=1;fillColor=#FF800E;" vertex="1" parent="1">
          <mxGeometry x="1355" y="260" width="10" height="10" as="geometry" />
        </mxCell>
        <mxCell id="14AgsMTUxLA6Hv1Yrgec-111" value="" style="rhombus;whiteSpace=wrap;html=1;fillColor=#FF800E;" vertex="1" parent="1">
          <mxGeometry x="1475" y="445" width="10" height="10" as="geometry" />
        </mxCell>
        <mxCell id="14AgsMTUxLA6Hv1Yrgec-112" value="" style="rhombus;whiteSpace=wrap;html=1;fillColor=#FF800E;" vertex="1" parent="1">
          <mxGeometry x="1595" y="385" width="10" height="10" as="geometry" />
        </mxCell>
        <mxCell id="14AgsMTUxLA6Hv1Yrgec-113" value="" style="ellipse;whiteSpace=wrap;html=1;aspect=fixed;fillColor=#FF800E;strokeColor=#36393d;" vertex="1" parent="1">
          <mxGeometry x="1355" y="355" width="10" height="10" as="geometry" />
        </mxCell>
        <mxCell id="14AgsMTUxLA6Hv1Yrgec-114" value="" style="ellipse;whiteSpace=wrap;html=1;aspect=fixed;fillColor=#ffcc99;strokeColor=none;" vertex="1" parent="1">
          <mxGeometry x="1355" y="165" width="10" height="10" as="geometry" />
        </mxCell>
        <mxCell id="14AgsMTUxLA6Hv1Yrgec-117" value="" style="endArrow=classic;html=1;rounded=0;curved=1;dashed=1;" edge="1" parent="1">
          <mxGeometry width="50" height="50" relative="1" as="geometry">
            <mxPoint x="1350" y="180" as="sourcePoint" />
            <mxPoint x="1350" y="350" as="targetPoint" />
            <Array as="points">
              <mxPoint x="1260" y="270" />
            </Array>
          </mxGeometry>
        </mxCell>
        <mxCell id="14AgsMTUxLA6Hv1Yrgec-118" value="" style="endArrow=classic;html=1;rounded=0;strokeWidth=3;" edge="1" parent="1">
          <mxGeometry width="50" height="50" relative="1" as="geometry">
            <mxPoint x="1760" y="480" as="sourcePoint" />
            <mxPoint x="2320" y="480" as="targetPoint" />
          </mxGeometry>
        </mxCell>
        <mxCell id="14AgsMTUxLA6Hv1Yrgec-119" value="" style="endArrow=classic;html=1;rounded=0;strokeWidth=3;" edge="1" parent="1">
          <mxGeometry width="50" height="50" relative="1" as="geometry">
            <mxPoint x="1761" y="481" as="sourcePoint" />
            <mxPoint x="1760" y="120" as="targetPoint" />
          </mxGeometry>
        </mxCell>
        <mxCell id="14AgsMTUxLA6Hv1Yrgec-122" value="" style="endArrow=none;html=1;rounded=0;strokeWidth=2;" edge="1" parent="1">
          <mxGeometry width="50" height="50" relative="1" as="geometry">
            <mxPoint x="2280" y="500" as="sourcePoint" />
            <mxPoint x="2280" y="480" as="targetPoint" />
          </mxGeometry>
        </mxCell>
        <mxCell id="14AgsMTUxLA6Hv1Yrgec-123" value="" style="endArrow=none;html=1;rounded=0;strokeWidth=2;" edge="1" parent="1">
          <mxGeometry width="50" height="50" relative="1" as="geometry">
            <mxPoint x="2160" y="500" as="sourcePoint" />
            <mxPoint x="2160" y="480" as="targetPoint" />
          </mxGeometry>
        </mxCell>
        <mxCell id="14AgsMTUxLA6Hv1Yrgec-124" value="" style="endArrow=none;html=1;rounded=0;strokeWidth=2;" edge="1" parent="1">
          <mxGeometry width="50" height="50" relative="1" as="geometry">
            <mxPoint x="2040" y="500" as="sourcePoint" />
            <mxPoint x="2040" y="480" as="targetPoint" />
          </mxGeometry>
        </mxCell>
        <mxCell id="14AgsMTUxLA6Hv1Yrgec-125" value="" style="endArrow=none;html=1;rounded=0;strokeWidth=2;" edge="1" parent="1">
          <mxGeometry width="50" height="50" relative="1" as="geometry">
            <mxPoint x="1920" y="500" as="sourcePoint" />
            <mxPoint x="1920" y="480" as="targetPoint" />
          </mxGeometry>
        </mxCell>
        <mxCell id="14AgsMTUxLA6Hv1Yrgec-126" value="" style="endArrow=none;html=1;rounded=0;strokeWidth=2;" edge="1" parent="1">
          <mxGeometry width="50" height="50" relative="1" as="geometry">
            <mxPoint x="1800" y="500" as="sourcePoint" />
            <mxPoint x="1800" y="480" as="targetPoint" />
          </mxGeometry>
        </mxCell>
        <mxCell id="14AgsMTUxLA6Hv1Yrgec-127" value="" style="endArrow=none;html=1;rounded=0;strokeWidth=2;" edge="1" parent="1">
          <mxGeometry width="50" height="50" relative="1" as="geometry">
            <mxPoint x="1740" y="440" as="sourcePoint" />
            <mxPoint x="1760" y="440" as="targetPoint" />
          </mxGeometry>
        </mxCell>
        <mxCell id="14AgsMTUxLA6Hv1Yrgec-128" value="" style="endArrow=none;html=1;rounded=0;strokeWidth=2;" edge="1" parent="1">
          <mxGeometry width="50" height="50" relative="1" as="geometry">
            <mxPoint x="1740" y="380" as="sourcePoint" />
            <mxPoint x="1760" y="380" as="targetPoint" />
          </mxGeometry>
        </mxCell>
        <mxCell id="14AgsMTUxLA6Hv1Yrgec-129" value="" style="endArrow=none;html=1;rounded=0;strokeWidth=2;" edge="1" parent="1">
          <mxGeometry width="50" height="50" relative="1" as="geometry">
            <mxPoint x="1740" y="260" as="sourcePoint" />
            <mxPoint x="1760" y="260" as="targetPoint" />
          </mxGeometry>
        </mxCell>
        <mxCell id="14AgsMTUxLA6Hv1Yrgec-130" value="" style="endArrow=none;html=1;rounded=0;strokeWidth=2;" edge="1" parent="1">
          <mxGeometry width="50" height="50" relative="1" as="geometry">
            <mxPoint x="1740" y="320" as="sourcePoint" />
            <mxPoint x="1760" y="320" as="targetPoint" />
          </mxGeometry>
        </mxCell>
        <mxCell id="14AgsMTUxLA6Hv1Yrgec-131" value="" style="endArrow=none;html=1;rounded=0;strokeWidth=2;" edge="1" parent="1">
          <mxGeometry width="50" height="50" relative="1" as="geometry">
            <mxPoint x="1740" y="200" as="sourcePoint" />
            <mxPoint x="1760" y="200" as="targetPoint" />
          </mxGeometry>
        </mxCell>
        <mxCell id="14AgsMTUxLA6Hv1Yrgec-132" value="" style="endArrow=none;html=1;rounded=0;strokeWidth=2;" edge="1" parent="1">
          <mxGeometry width="50" height="50" relative="1" as="geometry">
            <mxPoint x="1740" y="140" as="sourcePoint" />
            <mxPoint x="1760" y="140" as="targetPoint" />
          </mxGeometry>
        </mxCell>
        <mxCell id="14AgsMTUxLA6Hv1Yrgec-133" value="" style="endArrow=none;html=1;rounded=0;strokeColor=#FF800E;strokeWidth=4;" edge="1" parent="1" source="14AgsMTUxLA6Hv1Yrgec-140" target="14AgsMTUxLA6Hv1Yrgec-139">
          <mxGeometry width="50" height="50" relative="1" as="geometry">
            <mxPoint x="1850" y="380" as="sourcePoint" />
            <mxPoint x="2160" y="390" as="targetPoint" />
          </mxGeometry>
        </mxCell>
        <mxCell id="14AgsMTUxLA6Hv1Yrgec-134" value="" style="endArrow=none;html=1;rounded=0;strokeColor=#FF800E;strokeWidth=4;" edge="1" parent="1" source="14AgsMTUxLA6Hv1Yrgec-139" target="14AgsMTUxLA6Hv1Yrgec-159">
          <mxGeometry width="50" height="50" relative="1" as="geometry">
            <mxPoint x="1815" y="369" as="sourcePoint" />
            <mxPoint x="1925" y="351" as="targetPoint" />
          </mxGeometry>
        </mxCell>
        <mxCell id="14AgsMTUxLA6Hv1Yrgec-135" value="" style="endArrow=none;html=1;rounded=0;strokeColor=#FF800E;strokeWidth=4;" edge="1" parent="1" source="14AgsMTUxLA6Hv1Yrgec-138" target="14AgsMTUxLA6Hv1Yrgec-159">
          <mxGeometry width="50" height="50" relative="1" as="geometry">
            <mxPoint x="1933" y="346" as="sourcePoint" />
            <mxPoint x="2047" y="184" as="targetPoint" />
          </mxGeometry>
        </mxCell>
        <mxCell id="14AgsMTUxLA6Hv1Yrgec-136" value="" style="endArrow=none;html=1;rounded=0;strokeColor=#FF800E;strokeWidth=4;" edge="1" parent="1" source="14AgsMTUxLA6Hv1Yrgec-137" target="14AgsMTUxLA6Hv1Yrgec-138">
          <mxGeometry width="50" height="50" relative="1" as="geometry">
            <mxPoint x="2168" y="406" as="sourcePoint" />
            <mxPoint x="2052" y="184" as="targetPoint" />
          </mxGeometry>
        </mxCell>
        <mxCell id="14AgsMTUxLA6Hv1Yrgec-137" value="" style="ellipse;whiteSpace=wrap;html=1;aspect=fixed;fillColor=#FF800E;strokeColor=#36393d;" vertex="1" parent="1">
          <mxGeometry x="2275" y="355" width="10" height="10" as="geometry" />
        </mxCell>
        <mxCell id="14AgsMTUxLA6Hv1Yrgec-138" value="" style="ellipse;whiteSpace=wrap;html=1;aspect=fixed;fillColor=#FF800E;strokeColor=#36393d;" vertex="1" parent="1">
          <mxGeometry x="2155" y="395" width="10" height="10" as="geometry" />
        </mxCell>
        <mxCell id="14AgsMTUxLA6Hv1Yrgec-139" value="" style="ellipse;whiteSpace=wrap;html=1;aspect=fixed;fillColor=#FF800E;strokeColor=#36393d;" vertex="1" parent="1">
          <mxGeometry x="1915" y="335" width="10" height="10" as="geometry" />
        </mxCell>
        <mxCell id="14AgsMTUxLA6Hv1Yrgec-140" value="" style="ellipse;whiteSpace=wrap;html=1;aspect=fixed;fillColor=#FF800E;strokeColor=#36393d;" vertex="1" parent="1">
          <mxGeometry x="1795" y="355" width="10" height="10" as="geometry" />
        </mxCell>
        <mxCell id="14AgsMTUxLA6Hv1Yrgec-141" value="" style="endArrow=none;html=1;rounded=0;strokeColor=#FF800E;strokeWidth=4;entryX=0.512;entryY=0.587;entryDx=0;entryDy=0;entryPerimeter=0;exitX=0.544;exitY=0.556;exitDx=0;exitDy=0;exitPerimeter=0;dashed=1;dashPattern=1 2;" edge="1" parent="1" source="14AgsMTUxLA6Hv1Yrgec-148" target="14AgsMTUxLA6Hv1Yrgec-147">
          <mxGeometry width="50" height="50" relative="1" as="geometry">
            <mxPoint x="2178" y="416" as="sourcePoint" />
            <mxPoint x="2062" y="194" as="targetPoint" />
          </mxGeometry>
        </mxCell>
        <mxCell id="14AgsMTUxLA6Hv1Yrgec-142" value="" style="endArrow=none;html=1;rounded=0;strokeColor=#FF800E;strokeWidth=4;dashed=1;dashPattern=1 2;entryX=0.5;entryY=0.5;entryDx=0;entryDy=0;entryPerimeter=0;exitX=0.5;exitY=0.5;exitDx=0;exitDy=0;exitPerimeter=0;" edge="1" parent="1" source="14AgsMTUxLA6Hv1Yrgec-149" target="14AgsMTUxLA6Hv1Yrgec-148">
          <mxGeometry width="50" height="50" relative="1" as="geometry">
            <mxPoint x="2250" y="310" as="sourcePoint" />
            <mxPoint x="2180" y="370" as="targetPoint" />
          </mxGeometry>
        </mxCell>
        <mxCell id="14AgsMTUxLA6Hv1Yrgec-143" value="" style="endArrow=none;html=1;rounded=0;strokeColor=#FF800E;strokeWidth=4;entryX=0.544;entryY=0.65;entryDx=0;entryDy=0;entryPerimeter=0;exitX=0.45;exitY=0.556;exitDx=0;exitDy=0;exitPerimeter=0;dashed=1;dashPattern=1 2;" edge="1" parent="1" source="14AgsMTUxLA6Hv1Yrgec-145" target="14AgsMTUxLA6Hv1Yrgec-146">
          <mxGeometry width="50" height="50" relative="1" as="geometry">
            <mxPoint x="2170" y="371" as="sourcePoint" />
            <mxPoint x="2050" y="141" as="targetPoint" />
          </mxGeometry>
        </mxCell>
        <mxCell id="14AgsMTUxLA6Hv1Yrgec-144" value="" style="endArrow=none;html=1;rounded=0;strokeColor=#FF800E;strokeWidth=4;entryX=0.544;entryY=0.462;entryDx=0;entryDy=0;entryPerimeter=0;exitX=0.575;exitY=0.587;exitDx=0;exitDy=0;exitPerimeter=0;dashed=1;dashPattern=1 2;" edge="1" parent="1" source="14AgsMTUxLA6Hv1Yrgec-146" target="14AgsMTUxLA6Hv1Yrgec-147">
          <mxGeometry width="50" height="50" relative="1" as="geometry">
            <mxPoint x="1810" y="331" as="sourcePoint" />
            <mxPoint x="1930" y="322" as="targetPoint" />
          </mxGeometry>
        </mxCell>
        <mxCell id="14AgsMTUxLA6Hv1Yrgec-145" value="" style="rhombus;whiteSpace=wrap;html=1;fillColor=#FF800E;" vertex="1" parent="1">
          <mxGeometry x="1795" y="315" width="10" height="10" as="geometry" />
        </mxCell>
        <mxCell id="14AgsMTUxLA6Hv1Yrgec-146" value="" style="rhombus;whiteSpace=wrap;html=1;fillColor=#FF800E;" vertex="1" parent="1">
          <mxGeometry x="1915" y="305" width="10" height="10" as="geometry" />
        </mxCell>
        <mxCell id="14AgsMTUxLA6Hv1Yrgec-147" value="" style="rhombus;whiteSpace=wrap;html=1;fillColor=#FF800E;" vertex="1" parent="1">
          <mxGeometry x="2035" y="315" width="10" height="10" as="geometry" />
        </mxCell>
        <mxCell id="14AgsMTUxLA6Hv1Yrgec-148" value="" style="rhombus;whiteSpace=wrap;html=1;fillColor=#FF800E;" vertex="1" parent="1">
          <mxGeometry x="2155" y="355" width="10" height="10" as="geometry" />
        </mxCell>
        <mxCell id="14AgsMTUxLA6Hv1Yrgec-149" value="" style="rhombus;whiteSpace=wrap;html=1;fillColor=#FF800E;" vertex="1" parent="1">
          <mxGeometry x="2275" y="315" width="10" height="10" as="geometry" />
        </mxCell>
        <mxCell id="14AgsMTUxLA6Hv1Yrgec-150" value="" style="endArrow=none;html=1;rounded=0;strokeColor=#FF800E;strokeWidth=4;entryX=0.512;entryY=0.587;entryDx=0;entryDy=0;entryPerimeter=0;exitX=0.544;exitY=0.556;exitDx=0;exitDy=0;exitPerimeter=0;dashed=1;dashPattern=1 2;" edge="1" parent="1" source="14AgsMTUxLA6Hv1Yrgec-157" target="14AgsMTUxLA6Hv1Yrgec-156">
          <mxGeometry width="50" height="50" relative="1" as="geometry">
            <mxPoint x="2178" y="506" as="sourcePoint" />
            <mxPoint x="2062" y="284" as="targetPoint" />
          </mxGeometry>
        </mxCell>
        <mxCell id="14AgsMTUxLA6Hv1Yrgec-151" value="" style="endArrow=none;html=1;rounded=0;strokeColor=#FF800E;strokeWidth=4;dashed=1;dashPattern=1 2;entryX=0.5;entryY=0.5;entryDx=0;entryDy=0;entryPerimeter=0;exitX=0.5;exitY=0.5;exitDx=0;exitDy=0;exitPerimeter=0;" edge="1" parent="1" source="14AgsMTUxLA6Hv1Yrgec-158" target="14AgsMTUxLA6Hv1Yrgec-157">
          <mxGeometry width="50" height="50" relative="1" as="geometry">
            <mxPoint x="2250" y="400" as="sourcePoint" />
            <mxPoint x="2180" y="460" as="targetPoint" />
          </mxGeometry>
        </mxCell>
        <mxCell id="14AgsMTUxLA6Hv1Yrgec-152" value="" style="endArrow=none;html=1;rounded=0;strokeColor=#FF800E;strokeWidth=4;entryX=0.544;entryY=0.65;entryDx=0;entryDy=0;entryPerimeter=0;exitX=0.45;exitY=0.556;exitDx=0;exitDy=0;exitPerimeter=0;dashed=1;dashPattern=1 2;" edge="1" parent="1" source="14AgsMTUxLA6Hv1Yrgec-154" target="14AgsMTUxLA6Hv1Yrgec-155">
          <mxGeometry width="50" height="50" relative="1" as="geometry">
            <mxPoint x="2170" y="461" as="sourcePoint" />
            <mxPoint x="2050" y="231" as="targetPoint" />
          </mxGeometry>
        </mxCell>
        <mxCell id="14AgsMTUxLA6Hv1Yrgec-153" value="" style="endArrow=none;html=1;rounded=0;strokeColor=#FF800E;strokeWidth=4;entryX=0.544;entryY=0.462;entryDx=0;entryDy=0;entryPerimeter=0;exitX=0.575;exitY=0.587;exitDx=0;exitDy=0;exitPerimeter=0;dashed=1;dashPattern=1 2;" edge="1" parent="1" source="14AgsMTUxLA6Hv1Yrgec-155" target="14AgsMTUxLA6Hv1Yrgec-156">
          <mxGeometry width="50" height="50" relative="1" as="geometry">
            <mxPoint x="1810" y="421" as="sourcePoint" />
            <mxPoint x="1930" y="412" as="targetPoint" />
          </mxGeometry>
        </mxCell>
        <mxCell id="14AgsMTUxLA6Hv1Yrgec-154" value="" style="rhombus;whiteSpace=wrap;html=1;fillColor=#FF800E;" vertex="1" parent="1">
          <mxGeometry x="1795" y="385" width="10" height="10" as="geometry" />
        </mxCell>
        <mxCell id="14AgsMTUxLA6Hv1Yrgec-155" value="" style="rhombus;whiteSpace=wrap;html=1;fillColor=#FF800E;" vertex="1" parent="1">
          <mxGeometry x="1915" y="395" width="10" height="10" as="geometry" />
        </mxCell>
        <mxCell id="14AgsMTUxLA6Hv1Yrgec-156" value="" style="rhombus;whiteSpace=wrap;html=1;fillColor=#FF800E;" vertex="1" parent="1">
          <mxGeometry x="2035" y="381" width="10" height="10" as="geometry" />
        </mxCell>
        <mxCell id="14AgsMTUxLA6Hv1Yrgec-157" value="" style="rhombus;whiteSpace=wrap;html=1;fillColor=#FF800E;" vertex="1" parent="1">
          <mxGeometry x="2155" y="445" width="10" height="10" as="geometry" />
        </mxCell>
        <mxCell id="14AgsMTUxLA6Hv1Yrgec-158" value="" style="rhombus;whiteSpace=wrap;html=1;fillColor=#FF800E;" vertex="1" parent="1">
          <mxGeometry x="2275" y="385" width="10" height="10" as="geometry" />
        </mxCell>
        <mxCell id="14AgsMTUxLA6Hv1Yrgec-159" value="" style="ellipse;whiteSpace=wrap;html=1;aspect=fixed;fillColor=#FF800E;strokeColor=#36393d;" vertex="1" parent="1">
          <mxGeometry x="2035" y="355" width="10" height="10" as="geometry" />
        </mxCell>
        <mxCell id="14AgsMTUxLA6Hv1Yrgec-160" value="" style="rhombus;whiteSpace=wrap;html=1;fillColor=#ffcc99;strokeColor=none;" vertex="1" parent="1">
          <mxGeometry x="2035" y="125" width="10" height="10" as="geometry" />
        </mxCell>
        <mxCell id="14AgsMTUxLA6Hv1Yrgec-161" value="" style="rhombus;whiteSpace=wrap;html=1;fillColor=#ffcc99;strokeColor=none;" vertex="1" parent="1">
          <mxGeometry x="2035" y="260" width="10" height="10" as="geometry" />
        </mxCell>
        <mxCell id="14AgsMTUxLA6Hv1Yrgec-162" value="" style="ellipse;whiteSpace=wrap;html=1;aspect=fixed;fillColor=#ffcc99;strokeColor=none;" vertex="1" parent="1">
          <mxGeometry x="2035" y="165" width="10" height="10" as="geometry" />
        </mxCell>
        <mxCell id="14AgsMTUxLA6Hv1Yrgec-166" value="" style="endArrow=classic;html=1;rounded=0;curved=1;dashed=1;" edge="1" parent="1">
          <mxGeometry width="50" height="50" relative="1" as="geometry">
            <mxPoint x="2030" y="180" as="sourcePoint" />
            <mxPoint x="2030" y="350" as="targetPoint" />
            <Array as="points">
              <mxPoint x="1940" y="270" />
            </Array>
          </mxGeometry>
        </mxCell>
        <mxCell id="14AgsMTUxLA6Hv1Yrgec-167" value="" style="endArrow=classic;html=1;rounded=0;curved=1;dashed=1;" edge="1" parent="1">
          <mxGeometry width="50" height="50" relative="1" as="geometry">
            <mxPoint x="2050" y="140" as="sourcePoint" />
            <mxPoint x="2050" y="310" as="targetPoint" />
            <Array as="points">
              <mxPoint x="2138" y="225" />
            </Array>
          </mxGeometry>
        </mxCell>
        <mxCell id="14AgsMTUxLA6Hv1Yrgec-168" value="" style="endArrow=classic;html=1;rounded=0;curved=1;dashed=1;" edge="1" parent="1">
          <mxGeometry width="50" height="50" relative="1" as="geometry">
            <mxPoint x="2050" y="270" as="sourcePoint" />
            <mxPoint x="2050" y="380" as="targetPoint" />
            <Array as="points">
              <mxPoint x="2080" y="330" />
            </Array>
          </mxGeometry>
        </mxCell>
        <mxCell id="14AgsMTUxLA6Hv1Yrgec-169" value="&lt;font style=&quot;font-size: 26px;&quot;&gt;\(\mathrm{Columns}\)&lt;/font&gt;" style="text;html=1;align=center;verticalAlign=middle;whiteSpace=wrap;rounded=0;" vertex="1" parent="1">
          <mxGeometry x="1270" y="500" width="180" height="30" as="geometry" />
        </mxCell>
        <mxCell id="14AgsMTUxLA6Hv1Yrgec-170" value="&lt;font style=&quot;font-size: 26px;&quot;&gt;\(\mathrm{Columns}\)&lt;/font&gt;" style="text;html=1;align=center;verticalAlign=middle;whiteSpace=wrap;rounded=0;" vertex="1" parent="1">
          <mxGeometry x="1950" y="500" width="180" height="30" as="geometry" />
        </mxCell>
        <mxCell id="14AgsMTUxLA6Hv1Yrgec-171" value="&lt;font style=&quot;font-size: 26px;&quot;&gt;\(\mathrm{Disparity}\)&lt;/font&gt;" style="text;html=1;align=center;verticalAlign=middle;whiteSpace=wrap;rounded=0;rotation=-90;" vertex="1" parent="1">
          <mxGeometry x="945" y="280" width="180" height="30" as="geometry" />
        </mxCell>
        <mxCell id="14AgsMTUxLA6Hv1Yrgec-172" value="&lt;font style=&quot;font-size: 26px;&quot;&gt;\(\mathrm{Disparity}\)&lt;/font&gt;" style="text;html=1;align=center;verticalAlign=middle;whiteSpace=wrap;rounded=0;rotation=-90;" vertex="1" parent="1">
          <mxGeometry x="1625" y="280" width="180" height="30" as="geometry" />
        </mxCell>
        <mxCell id="14AgsMTUxLA6Hv1Yrgec-173" value="" style="rounded=1;whiteSpace=wrap;html=1;" vertex="1" parent="1">
          <mxGeometry x="380" y="118" width="170" height="85" as="geometry" />
        </mxCell>
        <mxCell id="14AgsMTUxLA6Hv1Yrgec-174" value="" style="endArrow=none;html=1;rounded=0;strokeColor=#FF800E;strokeWidth=4;" edge="1" parent="1" source="14AgsMTUxLA6Hv1Yrgec-176" target="14AgsMTUxLA6Hv1Yrgec-175">
          <mxGeometry width="50" height="50" relative="1" as="geometry">
            <mxPoint x="395" y="200" as="sourcePoint" />
            <mxPoint x="705" y="210" as="targetPoint" />
          </mxGeometry>
        </mxCell>
        <mxCell id="14AgsMTUxLA6Hv1Yrgec-175" value="" style="ellipse;whiteSpace=wrap;html=1;aspect=fixed;fillColor=#FF800E;strokeColor=#36393d;" vertex="1" parent="1">
          <mxGeometry x="460" y="175" width="10" height="10" as="geometry" />
        </mxCell>
        <mxCell id="14AgsMTUxLA6Hv1Yrgec-176" value="" style="ellipse;whiteSpace=wrap;html=1;aspect=fixed;fillColor=#FF800E;strokeColor=#36393d;" vertex="1" parent="1">
          <mxGeometry x="400" y="175" width="10" height="10" as="geometry" />
        </mxCell>
        <mxCell id="14AgsMTUxLA6Hv1Yrgec-177" value="" style="endArrow=none;html=1;rounded=0;strokeColor=#FF800E;strokeWidth=4;entryX=0.544;entryY=0.65;entryDx=0;entryDy=0;entryPerimeter=0;exitX=0.45;exitY=0.556;exitDx=0;exitDy=0;exitPerimeter=0;dashed=1;dashPattern=1 2;" edge="1" parent="1" source="14AgsMTUxLA6Hv1Yrgec-178" target="14AgsMTUxLA6Hv1Yrgec-179">
          <mxGeometry width="50" height="50" relative="1" as="geometry">
            <mxPoint x="760" y="101" as="sourcePoint" />
            <mxPoint x="640" y="-129" as="targetPoint" />
          </mxGeometry>
        </mxCell>
        <mxCell id="14AgsMTUxLA6Hv1Yrgec-178" value="" style="rhombus;whiteSpace=wrap;html=1;fillColor=#FF800E;" vertex="1" parent="1">
          <mxGeometry x="400" y="135" width="10" height="10" as="geometry" />
        </mxCell>
        <mxCell id="14AgsMTUxLA6Hv1Yrgec-179" value="" style="rhombus;whiteSpace=wrap;html=1;fillColor=#FF800E;" vertex="1" parent="1">
          <mxGeometry x="460" y="135" width="10" height="10" as="geometry" />
        </mxCell>
        <mxCell id="14AgsMTUxLA6Hv1Yrgec-182" value="&lt;div align=&quot;left&quot;&gt;&lt;font style=&quot;font-size: 26px;&quot;&gt;\(\tilde{d}\)&lt;/font&gt;&lt;/div&gt;" style="text;html=1;align=left;verticalAlign=middle;whiteSpace=wrap;rounded=0;" vertex="1" parent="1">
          <mxGeometry x="495" y="165" width="26.5" height="30" as="geometry" />
        </mxCell>
        <mxCell id="14AgsMTUxLA6Hv1Yrgec-183" value="&lt;div align=&quot;left&quot;&gt;&lt;font style=&quot;font-size: 26px;&quot;&gt;\(I_\alpha\)&lt;/font&gt;&lt;/div&gt;" style="text;html=1;align=left;verticalAlign=middle;whiteSpace=wrap;rounded=0;" vertex="1" parent="1">
          <mxGeometry x="495" y="125" width="35" height="30" as="geometry" />
        </mxCell>
        <mxCell id="14AgsMTUxLA6Hv1Yrgec-185" value="" style="rounded=1;whiteSpace=wrap;html=1;" vertex="1" parent="1">
          <mxGeometry x="1100" y="118" width="170" height="85" as="geometry" />
        </mxCell>
        <mxCell id="14AgsMTUxLA6Hv1Yrgec-186" value="" style="endArrow=none;html=1;rounded=0;strokeColor=#FF800E;strokeWidth=4;" edge="1" parent="1" source="14AgsMTUxLA6Hv1Yrgec-188" target="14AgsMTUxLA6Hv1Yrgec-187">
          <mxGeometry width="50" height="50" relative="1" as="geometry">
            <mxPoint x="1115" y="200" as="sourcePoint" />
            <mxPoint x="1425" y="210" as="targetPoint" />
          </mxGeometry>
        </mxCell>
        <mxCell id="14AgsMTUxLA6Hv1Yrgec-187" value="" style="ellipse;whiteSpace=wrap;html=1;aspect=fixed;fillColor=#FF800E;strokeColor=#36393d;" vertex="1" parent="1">
          <mxGeometry x="1180" y="175" width="10" height="10" as="geometry" />
        </mxCell>
        <mxCell id="14AgsMTUxLA6Hv1Yrgec-188" value="" style="ellipse;whiteSpace=wrap;html=1;aspect=fixed;fillColor=#FF800E;strokeColor=#36393d;" vertex="1" parent="1">
          <mxGeometry x="1120" y="175" width="10" height="10" as="geometry" />
        </mxCell>
        <mxCell id="14AgsMTUxLA6Hv1Yrgec-189" value="" style="endArrow=none;html=1;rounded=0;strokeColor=#FF800E;strokeWidth=4;entryX=0.544;entryY=0.65;entryDx=0;entryDy=0;entryPerimeter=0;exitX=0.45;exitY=0.556;exitDx=0;exitDy=0;exitPerimeter=0;dashed=1;dashPattern=1 2;" edge="1" parent="1" source="14AgsMTUxLA6Hv1Yrgec-190" target="14AgsMTUxLA6Hv1Yrgec-191">
          <mxGeometry width="50" height="50" relative="1" as="geometry">
            <mxPoint x="1480" y="101" as="sourcePoint" />
            <mxPoint x="1360" y="-129" as="targetPoint" />
          </mxGeometry>
        </mxCell>
        <mxCell id="14AgsMTUxLA6Hv1Yrgec-190" value="" style="rhombus;whiteSpace=wrap;html=1;fillColor=#FF800E;" vertex="1" parent="1">
          <mxGeometry x="1120" y="135" width="10" height="10" as="geometry" />
        </mxCell>
        <mxCell id="14AgsMTUxLA6Hv1Yrgec-191" value="" style="rhombus;whiteSpace=wrap;html=1;fillColor=#FF800E;" vertex="1" parent="1">
          <mxGeometry x="1180" y="135" width="10" height="10" as="geometry" />
        </mxCell>
        <mxCell id="14AgsMTUxLA6Hv1Yrgec-192" value="&lt;div align=&quot;left&quot;&gt;&lt;font style=&quot;font-size: 26px;&quot;&gt;\(\tilde{d}\)&lt;/font&gt;&lt;/div&gt;" style="text;html=1;align=left;verticalAlign=middle;whiteSpace=wrap;rounded=0;" vertex="1" parent="1">
          <mxGeometry x="1215" y="165" width="26.5" height="30" as="geometry" />
        </mxCell>
        <mxCell id="14AgsMTUxLA6Hv1Yrgec-193" value="&lt;div align=&quot;left&quot;&gt;&lt;font style=&quot;font-size: 26px;&quot;&gt;\(I_\alpha\)&lt;/font&gt;&lt;/div&gt;" style="text;html=1;align=left;verticalAlign=middle;whiteSpace=wrap;rounded=0;" vertex="1" parent="1">
          <mxGeometry x="1215" y="125" width="35" height="30" as="geometry" />
        </mxCell>
        <mxCell id="14AgsMTUxLA6Hv1Yrgec-194" value="" style="rounded=1;whiteSpace=wrap;html=1;" vertex="1" parent="1">
          <mxGeometry x="1780" y="118" width="170" height="85" as="geometry" />
        </mxCell>
        <mxCell id="14AgsMTUxLA6Hv1Yrgec-195" value="" style="endArrow=none;html=1;rounded=0;strokeColor=#FF800E;strokeWidth=4;" edge="1" parent="1" source="14AgsMTUxLA6Hv1Yrgec-197" target="14AgsMTUxLA6Hv1Yrgec-196">
          <mxGeometry width="50" height="50" relative="1" as="geometry">
            <mxPoint x="1795" y="200" as="sourcePoint" />
            <mxPoint x="2105" y="210" as="targetPoint" />
          </mxGeometry>
        </mxCell>
        <mxCell id="14AgsMTUxLA6Hv1Yrgec-196" value="" style="ellipse;whiteSpace=wrap;html=1;aspect=fixed;fillColor=#FF800E;strokeColor=#36393d;" vertex="1" parent="1">
          <mxGeometry x="1860" y="175" width="10" height="10" as="geometry" />
        </mxCell>
        <mxCell id="14AgsMTUxLA6Hv1Yrgec-197" value="" style="ellipse;whiteSpace=wrap;html=1;aspect=fixed;fillColor=#FF800E;strokeColor=#36393d;" vertex="1" parent="1">
          <mxGeometry x="1800" y="175" width="10" height="10" as="geometry" />
        </mxCell>
        <mxCell id="14AgsMTUxLA6Hv1Yrgec-198" value="" style="endArrow=none;html=1;rounded=0;strokeColor=#FF800E;strokeWidth=4;entryX=0.544;entryY=0.65;entryDx=0;entryDy=0;entryPerimeter=0;exitX=0.45;exitY=0.556;exitDx=0;exitDy=0;exitPerimeter=0;dashed=1;dashPattern=1 2;" edge="1" parent="1" source="14AgsMTUxLA6Hv1Yrgec-199" target="14AgsMTUxLA6Hv1Yrgec-200">
          <mxGeometry width="50" height="50" relative="1" as="geometry">
            <mxPoint x="2160" y="101" as="sourcePoint" />
            <mxPoint x="2040" y="-129" as="targetPoint" />
          </mxGeometry>
        </mxCell>
        <mxCell id="14AgsMTUxLA6Hv1Yrgec-199" value="" style="rhombus;whiteSpace=wrap;html=1;fillColor=#FF800E;" vertex="1" parent="1">
          <mxGeometry x="1800" y="135" width="10" height="10" as="geometry" />
        </mxCell>
        <mxCell id="14AgsMTUxLA6Hv1Yrgec-200" value="" style="rhombus;whiteSpace=wrap;html=1;fillColor=#FF800E;" vertex="1" parent="1">
          <mxGeometry x="1860" y="135" width="10" height="10" as="geometry" />
        </mxCell>
        <mxCell id="14AgsMTUxLA6Hv1Yrgec-201" value="&lt;div align=&quot;left&quot;&gt;&lt;font style=&quot;font-size: 26px;&quot;&gt;\(\tilde{d}\)&lt;/font&gt;&lt;/div&gt;" style="text;html=1;align=left;verticalAlign=middle;whiteSpace=wrap;rounded=0;" vertex="1" parent="1">
          <mxGeometry x="1895" y="165" width="26.5" height="30" as="geometry" />
        </mxCell>
        <mxCell id="14AgsMTUxLA6Hv1Yrgec-202" value="&lt;div align=&quot;left&quot;&gt;&lt;font style=&quot;font-size: 26px;&quot;&gt;\(I_\alpha\)&lt;/font&gt;&lt;/div&gt;" style="text;html=1;align=left;verticalAlign=middle;whiteSpace=wrap;rounded=0;" vertex="1" parent="1">
          <mxGeometry x="1895" y="125" width="35" height="30" as="geometry" />
        </mxCell>
      </root>
    </mxGraphModel>
  </diagram>
</mxfile>
